<svg width="735" height="736" viewBox="0 0 735 736" fill="none" xmlns="http://www.w3.org/2000/svg">
<circle cx="367.5" cy="364.283" r="217.772" fill="white"/>
<mask id="mask0_1248_44" style="mask-type:alpha" maskUnits="userSpaceOnUse" x="176" y="174" width="383" height="383">
<circle cx="367.5" cy="365.073" r="190.942" fill="#C4C4C4"/>
</mask>
<g mask="url(#mask0_1248_44)">
<g filter="url(#filter0_f_1248_44)">
<circle cx="221.397" cy="502.875" r="190.942" fill="#F868EC"/>
</g>
<g filter="url(#filter1_f_1248_44)">
<circle cx="207.88" cy="491.288" r="190.942" fill="#F868EC"/>
</g>
<g filter="url(#filter2_f_1248_44)">
<circle cx="571.074" cy="533.93" r="190.942" fill="#F98C2A"/>
</g>
<g filter="url(#filter3_f_1248_44)">
<circle cx="696.495" cy="468.111" r="190.942" fill="#F98C2A"/>
</g>
<g filter="url(#filter4_f_1248_44)">
<circle cx="245.241" cy="116.565" r="190.942" fill="#00D1EA"/>
</g>
<g filter="url(#filter5_f_1248_44)">
<circle cx="200.154" cy="162.967" r="190.942" fill="#00D1EA"/>
</g>
</g>
<g opacity="0.4">
<mask id="mask1_1248_44" style="mask-type:alpha" maskUnits="userSpaceOnUse" x="176" y="174" width="383" height="383">
<circle cx="367.5" cy="365.073" r="190.942" fill="#C4C4C4"/>
</mask>
<g mask="url(#mask1_1248_44)">
</g>
<mask id="mask2_1248_44" style="mask-type:alpha" maskUnits="userSpaceOnUse" x="176" y="174" width="383" height="383">
<circle cx="367.5" cy="365.073" r="190.942" fill="#C4C4C4"/>
</mask>
<g mask="url(#mask2_1248_44)">
<g filter="url(#filter6_f_1248_44)">
<circle cx="219.466" cy="487.425" r="190.942" fill="#F868EC"/>
</g>
<g filter="url(#filter7_f_1248_44)">
<circle cx="565.168" cy="489.356" r="190.942" fill="#F98C2A"/>
</g>
<g filter="url(#filter8_f_1248_44)">
<circle cx="586.412" cy="303.952" r="190.942" fill="#F98C2A"/>
</g>
<g filter="url(#filter9_f_1248_44)">
<circle cx="283.2" cy="141.724" r="190.942" fill="#00D1EA"/>
</g>
<g filter="url(#filter10_f_1248_44)">
<circle cx="341.137" cy="108.891" r="190.942" fill="#00D1EA"/>
</g>
</g>
</g>
<path fill-rule="evenodd" clip-rule="evenodd" d="M408.876 457.026C602.218 370.028 740.428 258.334 717.577 207.549C695.97 159.531 538.109 183.16 357.54 259.416C407.641 250.022 453.933 244.642 507.895 248.647C513.739 249.08 518.697 249.53 522.88 249.993C559.689 245.68 584.957 250.052 591.383 264.332C605.997 296.81 517.608 368.242 393.961 423.879C270.313 479.516 158.23 498.29 143.616 465.812C137.143 451.425 150.881 429.394 178.943 404.479C175.732 389.25 174.955 376.106 175.044 370.347C169.928 369.712 163.679 367.355 159.368 362.413C60.2097 426.013 1.9636 488.241 17.422 522.595C40.2735 573.38 215.533 544.024 408.876 457.026Z" fill="white"/>
<defs>
<filter id="filter0_f_1248_44" x="-179.209" y="102.27" width="801.212" height="801.212" filterUnits="userSpaceOnUse" color-interpolation-filters="sRGB">
<feFlood flood-opacity="0" result="BackgroundImageFix"/>
<feBlend mode="normal" in="SourceGraphic" in2="BackgroundImageFix" result="shape"/>
<feGaussianBlur stdDeviation="104.832" result="effect1_foregroundBlur_1248_44"/>
</filter>
<filter id="filter1_f_1248_44" x="-192.726" y="90.6817" width="801.212" height="801.212" filterUnits="userSpaceOnUse" color-interpolation-filters="sRGB">
<feFlood flood-opacity="0" result="BackgroundImageFix"/>
<feBlend mode="normal" in="SourceGraphic" in2="BackgroundImageFix" result="shape"/>
<feGaussianBlur stdDeviation="104.832" result="effect1_foregroundBlur_1248_44"/>
</filter>
<filter id="filter2_f_1248_44" x="249.092" y="211.948" width="643.964" height="643.964" filterUnits="userSpaceOnUse" color-interpolation-filters="sRGB">
<feFlood flood-opacity="0" result="BackgroundImageFix"/>
<feBlend mode="normal" in="SourceGraphic" in2="BackgroundImageFix" result="shape"/>
<feGaussianBlur stdDeviation="65.52" result="effect1_foregroundBlur_1248_44"/>
</filter>
<filter id="filter3_f_1248_44" x="374.513" y="146.129" width="643.964" height="643.964" filterUnits="userSpaceOnUse" color-interpolation-filters="sRGB">
<feFlood flood-opacity="0" result="BackgroundImageFix"/>
<feBlend mode="normal" in="SourceGraphic" in2="BackgroundImageFix" result="shape"/>
<feGaussianBlur stdDeviation="65.52" result="effect1_foregroundBlur_1248_44"/>
</filter>
<filter id="filter4_f_1248_44" x="-155.365" y="-284.041" width="801.212" height="801.212" filterUnits="userSpaceOnUse" color-interpolation-filters="sRGB">
<feFlood flood-opacity="0" result="BackgroundImageFix"/>
<feBlend mode="normal" in="SourceGraphic" in2="BackgroundImageFix" result="shape"/>
<feGaussianBlur stdDeviation="104.832" result="effect1_foregroundBlur_1248_44"/>
</filter>
<filter id="filter5_f_1248_44" x="-200.452" y="-237.639" width="801.212" height="801.212" filterUnits="userSpaceOnUse" color-interpolation-filters="sRGB">
<feFlood flood-opacity="0" result="BackgroundImageFix"/>
<feBlend mode="normal" in="SourceGraphic" in2="BackgroundImageFix" result="shape"/>
<feGaussianBlur stdDeviation="104.832" result="effect1_foregroundBlur_1248_44"/>
</filter>
<filter id="filter6_f_1248_44" x="-181.14" y="86.8186" width="801.212" height="801.212" filterUnits="userSpaceOnUse" color-interpolation-filters="sRGB">
<feFlood flood-opacity="0" result="BackgroundImageFix"/>
<feBlend mode="normal" in="SourceGraphic" in2="BackgroundImageFix" result="shape"/>
<feGaussianBlur stdDeviation="104.832" result="effect1_foregroundBlur_1248_44"/>
</filter>
<filter id="filter7_f_1248_44" x="243.187" y="167.374" width="643.964" height="643.964" filterUnits="userSpaceOnUse" color-interpolation-filters="sRGB">
<feFlood flood-opacity="0" result="BackgroundImageFix"/>
<feBlend mode="normal" in="SourceGraphic" in2="BackgroundImageFix" result="shape"/>
<feGaussianBlur stdDeviation="65.52" result="effect1_foregroundBlur_1248_44"/>
</filter>
<filter id="filter8_f_1248_44" x="264.43" y="-18.0303" width="643.964" height="643.964" filterUnits="userSpaceOnUse" color-interpolation-filters="sRGB">
<feFlood flood-opacity="0" result="BackgroundImageFix"/>
<feBlend mode="normal" in="SourceGraphic" in2="BackgroundImageFix" result="shape"/>
<feGaussianBlur stdDeviation="65.52" result="effect1_foregroundBlur_1248_44"/>
</filter>
<filter id="filter9_f_1248_44" x="-117.406" y="-258.882" width="801.212" height="801.212" filterUnits="userSpaceOnUse" color-interpolation-filters="sRGB">
<feFlood flood-opacity="0" result="BackgroundImageFix"/>
<feBlend mode="normal" in="SourceGraphic" in2="BackgroundImageFix" result="shape"/>
<feGaussianBlur stdDeviation="104.832" result="effect1_foregroundBlur_1248_44"/>
</filter>
<filter id="filter10_f_1248_44" x="-59.4687" y="-291.715" width="801.212" height="801.212" filterUnits="userSpaceOnUse" color-interpolation-filters="sRGB">
<feFlood flood-opacity="0" result="BackgroundImageFix"/>
<feBlend mode="normal" in="SourceGraphic" in2="BackgroundImageFix" result="shape"/>
<feGaussianBlur stdDeviation="104.832" result="effect1_foregroundBlur_1248_44"/>
</filter>
</defs>
</svg>
